<mxfile host="Electron" modified="2024-04-08T21:01:19.031Z" agent="Mozilla/5.0 (Windows NT 10.0; Win64; x64) AppleWebKit/537.36 (KHTML, like Gecko) draw.io/24.1.0 Chrome/120.0.6099.109 Electron/28.1.0 Safari/537.36" etag="9jJW2rBmO5oPCFnOF1_1" version="24.1.0" type="device">
  <diagram name="Page-1" id="l175DpBCYdtjrH4VuPA7">
    <mxGraphModel dx="2868" dy="2772" grid="1" gridSize="10" guides="1" tooltips="1" connect="1" arrows="1" fold="1" page="1" pageScale="1" pageWidth="850" pageHeight="1100" math="0" shadow="0">
      <root>
        <mxCell id="0" />
        <mxCell id="1" parent="0" />
        <mxCell id="AW-5If2h7jhuDSfscNTW-1" value="&amp;lt;&amp;lt;main&amp;gt;&amp;gt;&lt;br&gt;&lt;b&gt;Display&lt;/b&gt;&lt;br&gt;{entity}" style="swimlane;fontStyle=0;align=center;verticalAlign=top;childLayout=stackLayout;horizontal=1;startSize=55;horizontalStack=0;resizeParent=1;resizeParentMax=0;resizeLast=0;collapsible=0;marginBottom=0;html=1;whiteSpace=wrap;" vertex="1" parent="1">
          <mxGeometry x="70" y="170" width="370" height="363" as="geometry" />
        </mxCell>
        <mxCell id="AW-5If2h7jhuDSfscNTW-2" value="attributes" style="text;html=1;strokeColor=none;fillColor=none;align=center;verticalAlign=middle;spacingLeft=4;spacingRight=4;overflow=hidden;rotatable=0;points=[[0,0.5],[1,0.5]];portConstraint=eastwest;whiteSpace=wrap;" vertex="1" parent="AW-5If2h7jhuDSfscNTW-1">
          <mxGeometry y="55" width="370" height="20" as="geometry" />
        </mxCell>
        <mxCell id="AW-5If2h7jhuDSfscNTW-3" value="- orderArray : OrderDetails[]" style="text;html=1;strokeColor=none;fillColor=none;align=left;verticalAlign=middle;spacingLeft=4;spacingRight=4;overflow=hidden;rotatable=0;points=[[0,0.5],[1,0.5]];portConstraint=eastwest;whiteSpace=wrap;" vertex="1" parent="AW-5If2h7jhuDSfscNTW-1">
          <mxGeometry y="75" width="370" height="20" as="geometry" />
        </mxCell>
        <mxCell id="AW-5If2h7jhuDSfscNTW-9" value="- orderArrayByName : OrderDetails[]" style="text;html=1;strokeColor=none;fillColor=none;align=left;verticalAlign=middle;spacingLeft=4;spacingRight=4;overflow=hidden;rotatable=0;points=[[0,0.5],[1,0.5]];portConstraint=eastwest;whiteSpace=wrap;" vertex="1" parent="AW-5If2h7jhuDSfscNTW-1">
          <mxGeometry y="95" width="370" height="20" as="geometry" />
        </mxCell>
        <mxCell id="AW-5If2h7jhuDSfscNTW-10" value="- size : int" style="text;html=1;strokeColor=none;fillColor=none;align=left;verticalAlign=middle;spacingLeft=4;spacingRight=4;overflow=hidden;rotatable=0;points=[[0,0.5],[1,0.5]];portConstraint=eastwest;whiteSpace=wrap;" vertex="1" parent="AW-5If2h7jhuDSfscNTW-1">
          <mxGeometry y="115" width="370" height="20" as="geometry" />
        </mxCell>
        <mxCell id="AW-5If2h7jhuDSfscNTW-5" value="..." style="text;html=1;strokeColor=none;fillColor=none;align=left;verticalAlign=middle;spacingLeft=4;spacingRight=4;overflow=hidden;rotatable=0;points=[[0,0.5],[1,0.5]];portConstraint=eastwest;whiteSpace=wrap;" vertex="1" parent="AW-5If2h7jhuDSfscNTW-1">
          <mxGeometry y="135" width="370" height="20" as="geometry" />
        </mxCell>
        <mxCell id="AW-5If2h7jhuDSfscNTW-6" value="" style="line;strokeWidth=1;fillColor=none;align=left;verticalAlign=middle;spacingTop=-1;spacingLeft=3;spacingRight=3;rotatable=0;labelPosition=right;points=[];portConstraint=eastwest;" vertex="1" parent="AW-5If2h7jhuDSfscNTW-1">
          <mxGeometry y="155" width="370" height="8" as="geometry" />
        </mxCell>
        <mxCell id="AW-5If2h7jhuDSfscNTW-7" value="operations" style="text;html=1;strokeColor=none;fillColor=none;align=center;verticalAlign=middle;spacingLeft=4;spacingRight=4;overflow=hidden;rotatable=0;points=[[0,0.5],[1,0.5]];portConstraint=eastwest;whiteSpace=wrap;" vertex="1" parent="AW-5If2h7jhuDSfscNTW-1">
          <mxGeometry y="163" width="370" height="20" as="geometry" />
        </mxCell>
        <mxCell id="AW-5If2h7jhuDSfscNTW-8" value="+ update(arr : Object[], n : int) : void" style="text;html=1;strokeColor=none;fillColor=none;align=left;verticalAlign=middle;spacingLeft=4;spacingRight=4;overflow=hidden;rotatable=0;points=[[0,0.5],[1,0.5]];portConstraint=eastwest;whiteSpace=wrap;" vertex="1" parent="AW-5If2h7jhuDSfscNTW-1">
          <mxGeometry y="183" width="370" height="20" as="geometry" />
        </mxCell>
        <mxCell id="AW-5If2h7jhuDSfscNTW-14" value="+ printArray() : void" style="text;html=1;strokeColor=none;fillColor=none;align=left;verticalAlign=middle;spacingLeft=4;spacingRight=4;overflow=hidden;rotatable=0;points=[[0,0.5],[1,0.5]];portConstraint=eastwest;whiteSpace=wrap;" vertex="1" parent="AW-5If2h7jhuDSfscNTW-1">
          <mxGeometry y="203" width="370" height="20" as="geometry" />
        </mxCell>
        <mxCell id="AW-5If2h7jhuDSfscNTW-13" value="- printIndented(msgLeft : String, msgRight : String) : void" style="text;html=1;strokeColor=none;fillColor=none;align=left;verticalAlign=middle;spacingLeft=4;spacingRight=4;overflow=hidden;rotatable=0;points=[[0,0.5],[1,0.5]];portConstraint=eastwest;whiteSpace=wrap;" vertex="1" parent="AW-5If2h7jhuDSfscNTW-1">
          <mxGeometry y="223" width="370" height="20" as="geometry" />
        </mxCell>
        <mxCell id="AW-5If2h7jhuDSfscNTW-12" value="- printCentered(msgLeft : String, msgRight : String) : void" style="text;html=1;strokeColor=none;fillColor=none;align=left;verticalAlign=middle;spacingLeft=4;spacingRight=4;overflow=hidden;rotatable=0;points=[[0,0.5],[1,0.5]];portConstraint=eastwest;whiteSpace=wrap;" vertex="1" parent="AW-5If2h7jhuDSfscNTW-1">
          <mxGeometry y="243" width="370" height="20" as="geometry" />
        </mxCell>
        <mxCell id="AW-5If2h7jhuDSfscNTW-21" value="- center(msg : String, width : int) : String" style="text;html=1;strokeColor=none;fillColor=none;align=left;verticalAlign=middle;spacingLeft=4;spacingRight=4;overflow=hidden;rotatable=0;points=[[0,0.5],[1,0.5]];portConstraint=eastwest;whiteSpace=wrap;" vertex="1" parent="AW-5If2h7jhuDSfscNTW-1">
          <mxGeometry y="263" width="370" height="20" as="geometry" />
        </mxCell>
        <mxCell id="AW-5If2h7jhuDSfscNTW-20" value="- quicksort(arr : OrderDetails[], low : int, high : int) : void" style="text;html=1;strokeColor=none;fillColor=none;align=left;verticalAlign=middle;spacingLeft=4;spacingRight=4;overflow=hidden;rotatable=0;points=[[0,0.5],[1,0.5]];portConstraint=eastwest;whiteSpace=wrap;" vertex="1" parent="AW-5If2h7jhuDSfscNTW-1">
          <mxGeometry y="283" width="370" height="20" as="geometry" />
        </mxCell>
        <mxCell id="AW-5If2h7jhuDSfscNTW-19" value="- partition(arr : OrderDetails[], low : int, high : int) : int" style="text;html=1;strokeColor=none;fillColor=none;align=left;verticalAlign=middle;spacingLeft=4;spacingRight=4;overflow=hidden;rotatable=0;points=[[0,0.5],[1,0.5]];portConstraint=eastwest;whiteSpace=wrap;" vertex="1" parent="AW-5If2h7jhuDSfscNTW-1">
          <mxGeometry y="303" width="370" height="20" as="geometry" />
        </mxCell>
        <mxCell id="AW-5If2h7jhuDSfscNTW-18" value="- swap(arr : OrderDetails[], i : int, j : int) : void" style="text;html=1;strokeColor=none;fillColor=none;align=left;verticalAlign=middle;spacingLeft=4;spacingRight=4;overflow=hidden;rotatable=0;points=[[0,0.5],[1,0.5]];portConstraint=eastwest;whiteSpace=wrap;" vertex="1" parent="AW-5If2h7jhuDSfscNTW-1">
          <mxGeometry y="323" width="370" height="20" as="geometry" />
        </mxCell>
        <mxCell id="AW-5If2h7jhuDSfscNTW-11" value="..." style="text;html=1;strokeColor=none;fillColor=none;align=left;verticalAlign=middle;spacingLeft=4;spacingRight=4;overflow=hidden;rotatable=0;points=[[0,0.5],[1,0.5]];portConstraint=eastwest;whiteSpace=wrap;" vertex="1" parent="AW-5If2h7jhuDSfscNTW-1">
          <mxGeometry y="343" width="370" height="20" as="geometry" />
        </mxCell>
        <mxCell id="AW-5If2h7jhuDSfscNTW-39" value="myQueue" style="edgeStyle=orthogonalEdgeStyle;rounded=0;orthogonalLoop=1;jettySize=auto;html=1;endArrow=none;endFill=0;" edge="1" parent="1" source="AW-5If2h7jhuDSfscNTW-22" target="AW-5If2h7jhuDSfscNTW-1">
          <mxGeometry relative="1" as="geometry" />
        </mxCell>
        <mxCell id="AW-5If2h7jhuDSfscNTW-57" value="1..n" style="edgeStyle=orthogonalEdgeStyle;rounded=0;orthogonalLoop=1;jettySize=auto;html=1;startArrow=diamond;startFill=0;endArrow=none;endFill=0;" edge="1" parent="1" source="AW-5If2h7jhuDSfscNTW-22" target="AW-5If2h7jhuDSfscNTW-43">
          <mxGeometry relative="1" as="geometry">
            <Array as="points">
              <mxPoint x="1010" y="480" />
              <mxPoint x="1010" y="480" />
            </Array>
          </mxGeometry>
        </mxCell>
        <mxCell id="AW-5If2h7jhuDSfscNTW-100" style="edgeStyle=orthogonalEdgeStyle;rounded=0;orthogonalLoop=1;jettySize=auto;html=1;endArrow=none;endFill=0;" edge="1" parent="1" source="AW-5If2h7jhuDSfscNTW-22" target="AW-5If2h7jhuDSfscNTW-63">
          <mxGeometry relative="1" as="geometry">
            <Array as="points">
              <mxPoint x="1000" y="240" />
              <mxPoint x="1000" y="240" />
            </Array>
          </mxGeometry>
        </mxCell>
        <mxCell id="AW-5If2h7jhuDSfscNTW-22" value="&amp;lt;&amp;lt;main&amp;gt;&amp;gt;&lt;br&gt;&lt;b&gt;Order&lt;/b&gt;&lt;br&gt;{entity}" style="swimlane;fontStyle=0;align=center;verticalAlign=top;childLayout=stackLayout;horizontal=1;startSize=55;horizontalStack=0;resizeParent=1;resizeParentMax=0;resizeLast=0;collapsible=0;marginBottom=0;html=1;whiteSpace=wrap;" vertex="1" parent="1">
          <mxGeometry x="570" y="200" width="290" height="303" as="geometry" />
        </mxCell>
        <mxCell id="AW-5If2h7jhuDSfscNTW-23" value="attributes" style="text;html=1;strokeColor=none;fillColor=none;align=center;verticalAlign=middle;spacingLeft=4;spacingRight=4;overflow=hidden;rotatable=0;points=[[0,0.5],[1,0.5]];portConstraint=eastwest;whiteSpace=wrap;" vertex="1" parent="AW-5If2h7jhuDSfscNTW-22">
          <mxGeometry y="55" width="290" height="20" as="geometry" />
        </mxCell>
        <mxCell id="AW-5If2h7jhuDSfscNTW-24" value="- orderQueue : LinkedQueue&amp;lt;OrderDetails&amp;gt;" style="text;html=1;strokeColor=none;fillColor=none;align=left;verticalAlign=middle;spacingLeft=4;spacingRight=4;overflow=hidden;rotatable=0;points=[[0,0.5],[1,0.5]];portConstraint=eastwest;whiteSpace=wrap;" vertex="1" parent="AW-5If2h7jhuDSfscNTW-22">
          <mxGeometry y="75" width="290" height="20" as="geometry" />
        </mxCell>
        <mxCell id="AW-5If2h7jhuDSfscNTW-25" value="- nextOrderNumber : int" style="text;html=1;strokeColor=none;fillColor=none;align=left;verticalAlign=middle;spacingLeft=4;spacingRight=4;overflow=hidden;rotatable=0;points=[[0,0.5],[1,0.5]];portConstraint=eastwest;whiteSpace=wrap;" vertex="1" parent="AW-5If2h7jhuDSfscNTW-22">
          <mxGeometry y="95" width="290" height="20" as="geometry" />
        </mxCell>
        <mxCell id="AW-5If2h7jhuDSfscNTW-26" value="- myQueue : Display" style="text;html=1;strokeColor=none;fillColor=none;align=left;verticalAlign=middle;spacingLeft=4;spacingRight=4;overflow=hidden;rotatable=0;points=[[0,0.5],[1,0.5]];portConstraint=eastwest;whiteSpace=wrap;" vertex="1" parent="AW-5If2h7jhuDSfscNTW-22">
          <mxGeometry y="115" width="290" height="20" as="geometry" />
        </mxCell>
        <mxCell id="AW-5If2h7jhuDSfscNTW-27" value="..." style="text;html=1;strokeColor=none;fillColor=none;align=left;verticalAlign=middle;spacingLeft=4;spacingRight=4;overflow=hidden;rotatable=0;points=[[0,0.5],[1,0.5]];portConstraint=eastwest;whiteSpace=wrap;" vertex="1" parent="AW-5If2h7jhuDSfscNTW-22">
          <mxGeometry y="135" width="290" height="20" as="geometry" />
        </mxCell>
        <mxCell id="AW-5If2h7jhuDSfscNTW-28" value="" style="line;strokeWidth=1;fillColor=none;align=left;verticalAlign=middle;spacingTop=-1;spacingLeft=3;spacingRight=3;rotatable=0;labelPosition=right;points=[];portConstraint=eastwest;" vertex="1" parent="AW-5If2h7jhuDSfscNTW-22">
          <mxGeometry y="155" width="290" height="8" as="geometry" />
        </mxCell>
        <mxCell id="AW-5If2h7jhuDSfscNTW-29" value="operations" style="text;html=1;strokeColor=none;fillColor=none;align=center;verticalAlign=middle;spacingLeft=4;spacingRight=4;overflow=hidden;rotatable=0;points=[[0,0.5],[1,0.5]];portConstraint=eastwest;whiteSpace=wrap;" vertex="1" parent="AW-5If2h7jhuDSfscNTW-22">
          <mxGeometry y="163" width="290" height="20" as="geometry" />
        </mxCell>
        <mxCell id="AW-5If2h7jhuDSfscNTW-30" value="+ add(name : String, cost : double) : void" style="text;html=1;strokeColor=none;fillColor=none;align=left;verticalAlign=middle;spacingLeft=4;spacingRight=4;overflow=hidden;rotatable=0;points=[[0,0.5],[1,0.5]];portConstraint=eastwest;whiteSpace=wrap;" vertex="1" parent="AW-5If2h7jhuDSfscNTW-22">
          <mxGeometry y="183" width="290" height="20" as="geometry" />
        </mxCell>
        <mxCell id="AW-5If2h7jhuDSfscNTW-31" value="+ fill() : OrderDetails" style="text;html=1;strokeColor=none;fillColor=none;align=left;verticalAlign=middle;spacingLeft=4;spacingRight=4;overflow=hidden;rotatable=0;points=[[0,0.5],[1,0.5]];portConstraint=eastwest;whiteSpace=wrap;" vertex="1" parent="AW-5If2h7jhuDSfscNTW-22">
          <mxGeometry y="203" width="290" height="20" as="geometry" />
        </mxCell>
        <mxCell id="AW-5If2h7jhuDSfscNTW-32" value="+ display() : void" style="text;html=1;strokeColor=none;fillColor=none;align=left;verticalAlign=middle;spacingLeft=4;spacingRight=4;overflow=hidden;rotatable=0;points=[[0,0.5],[1,0.5]];portConstraint=eastwest;whiteSpace=wrap;" vertex="1" parent="AW-5If2h7jhuDSfscNTW-22">
          <mxGeometry y="223" width="290" height="20" as="geometry" />
        </mxCell>
        <mxCell id="AW-5If2h7jhuDSfscNTW-33" value="- updateDisplay() : void" style="text;html=1;strokeColor=none;fillColor=none;align=left;verticalAlign=middle;spacingLeft=4;spacingRight=4;overflow=hidden;rotatable=0;points=[[0,0.5],[1,0.5]];portConstraint=eastwest;whiteSpace=wrap;" vertex="1" parent="AW-5If2h7jhuDSfscNTW-22">
          <mxGeometry y="243" width="290" height="20" as="geometry" />
        </mxCell>
        <mxCell id="AW-5If2h7jhuDSfscNTW-34" value="- alertUser(msg : String, item : OrderDetails) : void" style="text;html=1;strokeColor=none;fillColor=none;align=left;verticalAlign=middle;spacingLeft=4;spacingRight=4;overflow=hidden;rotatable=0;points=[[0,0.5],[1,0.5]];portConstraint=eastwest;whiteSpace=wrap;" vertex="1" parent="AW-5If2h7jhuDSfscNTW-22">
          <mxGeometry y="263" width="290" height="20" as="geometry" />
        </mxCell>
        <mxCell id="AW-5If2h7jhuDSfscNTW-38" value="..." style="text;html=1;strokeColor=none;fillColor=none;align=left;verticalAlign=middle;spacingLeft=4;spacingRight=4;overflow=hidden;rotatable=0;points=[[0,0.5],[1,0.5]];portConstraint=eastwest;whiteSpace=wrap;" vertex="1" parent="AW-5If2h7jhuDSfscNTW-22">
          <mxGeometry y="283" width="290" height="20" as="geometry" />
        </mxCell>
        <mxCell id="AW-5If2h7jhuDSfscNTW-41" value="Vertical Container" style="swimlane;whiteSpace=wrap;html=1;" vertex="1" parent="1">
          <mxGeometry x="1610" y="110" width="350" height="640" as="geometry" />
        </mxCell>
        <mxCell id="AW-5If2h7jhuDSfscNTW-42" value="A" style="whiteSpace=wrap;html=1;aspect=fixed;" vertex="1" parent="AW-5If2h7jhuDSfscNTW-41">
          <mxGeometry x="30" y="580" width="40" height="40" as="geometry" />
        </mxCell>
        <mxCell id="AW-5If2h7jhuDSfscNTW-43" value="&amp;lt;&amp;lt;main&amp;gt;&amp;gt;&lt;br&gt;&lt;b&gt;OrderDetails&lt;/b&gt;&lt;br&gt;{entity}" style="swimlane;fontStyle=0;align=center;verticalAlign=top;childLayout=stackLayout;horizontal=1;startSize=55;horizontalStack=0;resizeParent=1;resizeParentMax=0;resizeLast=0;collapsible=0;marginBottom=0;html=1;whiteSpace=wrap;" vertex="1" parent="1">
          <mxGeometry x="1050" y="330" width="200" height="303" as="geometry" />
        </mxCell>
        <mxCell id="AW-5If2h7jhuDSfscNTW-44" value="attributes" style="text;html=1;strokeColor=none;fillColor=none;align=center;verticalAlign=middle;spacingLeft=4;spacingRight=4;overflow=hidden;rotatable=0;points=[[0,0.5],[1,0.5]];portConstraint=eastwest;whiteSpace=wrap;" vertex="1" parent="AW-5If2h7jhuDSfscNTW-43">
          <mxGeometry y="55" width="200" height="20" as="geometry" />
        </mxCell>
        <mxCell id="AW-5If2h7jhuDSfscNTW-45" value="- lastName : String" style="text;html=1;strokeColor=none;fillColor=none;align=left;verticalAlign=middle;spacingLeft=4;spacingRight=4;overflow=hidden;rotatable=0;points=[[0,0.5],[1,0.5]];portConstraint=eastwest;whiteSpace=wrap;" vertex="1" parent="AW-5If2h7jhuDSfscNTW-43">
          <mxGeometry y="75" width="200" height="20" as="geometry" />
        </mxCell>
        <mxCell id="AW-5If2h7jhuDSfscNTW-46" value="- orderNumber : Integer" style="text;html=1;strokeColor=none;fillColor=none;align=left;verticalAlign=middle;spacingLeft=4;spacingRight=4;overflow=hidden;rotatable=0;points=[[0,0.5],[1,0.5]];portConstraint=eastwest;whiteSpace=wrap;" vertex="1" parent="AW-5If2h7jhuDSfscNTW-43">
          <mxGeometry y="95" width="200" height="20" as="geometry" />
        </mxCell>
        <mxCell id="AW-5If2h7jhuDSfscNTW-47" value="- orderCost : double" style="text;html=1;strokeColor=none;fillColor=none;align=left;verticalAlign=middle;spacingLeft=4;spacingRight=4;overflow=hidden;rotatable=0;points=[[0,0.5],[1,0.5]];portConstraint=eastwest;whiteSpace=wrap;" vertex="1" parent="AW-5If2h7jhuDSfscNTW-43">
          <mxGeometry y="115" width="200" height="20" as="geometry" />
        </mxCell>
        <mxCell id="AW-5If2h7jhuDSfscNTW-48" value="..." style="text;html=1;strokeColor=none;fillColor=none;align=left;verticalAlign=middle;spacingLeft=4;spacingRight=4;overflow=hidden;rotatable=0;points=[[0,0.5],[1,0.5]];portConstraint=eastwest;whiteSpace=wrap;" vertex="1" parent="AW-5If2h7jhuDSfscNTW-43">
          <mxGeometry y="135" width="200" height="20" as="geometry" />
        </mxCell>
        <mxCell id="AW-5If2h7jhuDSfscNTW-49" value="" style="line;strokeWidth=1;fillColor=none;align=left;verticalAlign=middle;spacingTop=-1;spacingLeft=3;spacingRight=3;rotatable=0;labelPosition=right;points=[];portConstraint=eastwest;" vertex="1" parent="AW-5If2h7jhuDSfscNTW-43">
          <mxGeometry y="155" width="200" height="8" as="geometry" />
        </mxCell>
        <mxCell id="AW-5If2h7jhuDSfscNTW-50" value="operations" style="text;html=1;strokeColor=none;fillColor=none;align=center;verticalAlign=middle;spacingLeft=4;spacingRight=4;overflow=hidden;rotatable=0;points=[[0,0.5],[1,0.5]];portConstraint=eastwest;whiteSpace=wrap;" vertex="1" parent="AW-5If2h7jhuDSfscNTW-43">
          <mxGeometry y="163" width="200" height="20" as="geometry" />
        </mxCell>
        <mxCell id="AW-5If2h7jhuDSfscNTW-58" value="+ getLastName() : String" style="text;html=1;strokeColor=none;fillColor=none;align=left;verticalAlign=middle;spacingLeft=4;spacingRight=4;overflow=hidden;rotatable=0;points=[[0,0.5],[1,0.5]];portConstraint=eastwest;whiteSpace=wrap;" vertex="1" parent="AW-5If2h7jhuDSfscNTW-43">
          <mxGeometry y="183" width="200" height="20" as="geometry" />
        </mxCell>
        <mxCell id="AW-5If2h7jhuDSfscNTW-60" value="+ getOrderNumber() : int" style="text;html=1;strokeColor=none;fillColor=none;align=left;verticalAlign=middle;spacingLeft=4;spacingRight=4;overflow=hidden;rotatable=0;points=[[0,0.5],[1,0.5]];portConstraint=eastwest;whiteSpace=wrap;" vertex="1" parent="AW-5If2h7jhuDSfscNTW-43">
          <mxGeometry y="203" width="200" height="20" as="geometry" />
        </mxCell>
        <mxCell id="AW-5If2h7jhuDSfscNTW-59" value="+ getOrderCost() : double" style="text;html=1;strokeColor=none;fillColor=none;align=left;verticalAlign=middle;spacingLeft=4;spacingRight=4;overflow=hidden;rotatable=0;points=[[0,0.5],[1,0.5]];portConstraint=eastwest;whiteSpace=wrap;" vertex="1" parent="AW-5If2h7jhuDSfscNTW-43">
          <mxGeometry y="223" width="200" height="20" as="geometry" />
        </mxCell>
        <mxCell id="AW-5If2h7jhuDSfscNTW-62" value="+ toString() : String" style="text;html=1;strokeColor=none;fillColor=none;align=left;verticalAlign=middle;spacingLeft=4;spacingRight=4;overflow=hidden;rotatable=0;points=[[0,0.5],[1,0.5]];portConstraint=eastwest;whiteSpace=wrap;" vertex="1" parent="AW-5If2h7jhuDSfscNTW-43">
          <mxGeometry y="243" width="200" height="20" as="geometry" />
        </mxCell>
        <mxCell id="AW-5If2h7jhuDSfscNTW-61" value="+ compareTo(OrderDetails o) : int" style="text;html=1;strokeColor=none;fillColor=none;align=left;verticalAlign=middle;spacingLeft=4;spacingRight=4;overflow=hidden;rotatable=0;points=[[0,0.5],[1,0.5]];portConstraint=eastwest;whiteSpace=wrap;" vertex="1" parent="AW-5If2h7jhuDSfscNTW-43">
          <mxGeometry y="263" width="200" height="20" as="geometry" />
        </mxCell>
        <mxCell id="AW-5If2h7jhuDSfscNTW-56" value="..." style="text;html=1;strokeColor=none;fillColor=none;align=left;verticalAlign=middle;spacingLeft=4;spacingRight=4;overflow=hidden;rotatable=0;points=[[0,0.5],[1,0.5]];portConstraint=eastwest;whiteSpace=wrap;" vertex="1" parent="AW-5If2h7jhuDSfscNTW-43">
          <mxGeometry y="283" width="200" height="20" as="geometry" />
        </mxCell>
        <mxCell id="AW-5If2h7jhuDSfscNTW-101" style="edgeStyle=orthogonalEdgeStyle;rounded=0;orthogonalLoop=1;jettySize=auto;html=1;endArrow=none;endFill=0;" edge="1" parent="1" source="AW-5If2h7jhuDSfscNTW-63" target="AW-5If2h7jhuDSfscNTW-78">
          <mxGeometry relative="1" as="geometry">
            <Array as="points">
              <mxPoint x="930" y="100" />
              <mxPoint x="930" y="100" />
            </Array>
          </mxGeometry>
        </mxCell>
        <mxCell id="AW-5If2h7jhuDSfscNTW-63" value="&amp;lt;&amp;lt;main&amp;gt;&amp;gt;&lt;br&gt;&lt;b&gt;Main&lt;/b&gt;&lt;br&gt;{entity}" style="swimlane;fontStyle=0;align=center;verticalAlign=top;childLayout=stackLayout;horizontal=1;startSize=55;horizontalStack=0;resizeParent=1;resizeParentMax=0;resizeLast=0;collapsible=0;marginBottom=0;html=1;whiteSpace=wrap;" vertex="1" parent="1">
          <mxGeometry x="1050" y="20" width="200" height="263" as="geometry" />
        </mxCell>
        <mxCell id="AW-5If2h7jhuDSfscNTW-64" value="attributes" style="text;html=1;strokeColor=none;fillColor=none;align=center;verticalAlign=middle;spacingLeft=4;spacingRight=4;overflow=hidden;rotatable=0;points=[[0,0.5],[1,0.5]];portConstraint=eastwest;whiteSpace=wrap;" vertex="1" parent="AW-5If2h7jhuDSfscNTW-63">
          <mxGeometry y="55" width="200" height="20" as="geometry" />
        </mxCell>
        <mxCell id="AW-5If2h7jhuDSfscNTW-65" value="- &lt;u&gt;orderQueue &lt;/u&gt;: Order" style="text;html=1;strokeColor=none;fillColor=none;align=left;verticalAlign=middle;spacingLeft=4;spacingRight=4;overflow=hidden;rotatable=0;points=[[0,0.5],[1,0.5]];portConstraint=eastwest;whiteSpace=wrap;" vertex="1" parent="AW-5If2h7jhuDSfscNTW-63">
          <mxGeometry y="75" width="200" height="20" as="geometry" />
        </mxCell>
        <mxCell id="AW-5If2h7jhuDSfscNTW-66" value="- &lt;u&gt;main &lt;/u&gt;: Menu" style="text;html=1;strokeColor=none;fillColor=none;align=left;verticalAlign=middle;spacingLeft=4;spacingRight=4;overflow=hidden;rotatable=0;points=[[0,0.5],[1,0.5]];portConstraint=eastwest;whiteSpace=wrap;" vertex="1" parent="AW-5If2h7jhuDSfscNTW-63">
          <mxGeometry y="95" width="200" height="20" as="geometry" />
        </mxCell>
        <mxCell id="AW-5If2h7jhuDSfscNTW-68" value="..." style="text;html=1;strokeColor=none;fillColor=none;align=left;verticalAlign=middle;spacingLeft=4;spacingRight=4;overflow=hidden;rotatable=0;points=[[0,0.5],[1,0.5]];portConstraint=eastwest;whiteSpace=wrap;" vertex="1" parent="AW-5If2h7jhuDSfscNTW-63">
          <mxGeometry y="115" width="200" height="20" as="geometry" />
        </mxCell>
        <mxCell id="AW-5If2h7jhuDSfscNTW-69" value="" style="line;strokeWidth=1;fillColor=none;align=left;verticalAlign=middle;spacingTop=-1;spacingLeft=3;spacingRight=3;rotatable=0;labelPosition=right;points=[];portConstraint=eastwest;" vertex="1" parent="AW-5If2h7jhuDSfscNTW-63">
          <mxGeometry y="135" width="200" height="8" as="geometry" />
        </mxCell>
        <mxCell id="AW-5If2h7jhuDSfscNTW-70" value="operations" style="text;html=1;strokeColor=none;fillColor=none;align=center;verticalAlign=middle;spacingLeft=4;spacingRight=4;overflow=hidden;rotatable=0;points=[[0,0.5],[1,0.5]];portConstraint=eastwest;whiteSpace=wrap;" vertex="1" parent="AW-5If2h7jhuDSfscNTW-63">
          <mxGeometry y="143" width="200" height="20" as="geometry" />
        </mxCell>
        <mxCell id="AW-5If2h7jhuDSfscNTW-77" value="+ &lt;u&gt;main&lt;/u&gt;(args : String[]) : void" style="text;html=1;strokeColor=none;fillColor=none;align=left;verticalAlign=middle;spacingLeft=4;spacingRight=4;overflow=hidden;rotatable=0;points=[[0,0.5],[1,0.5]];portConstraint=eastwest;whiteSpace=wrap;" vertex="1" parent="AW-5If2h7jhuDSfscNTW-63">
          <mxGeometry y="163" width="200" height="20" as="geometry" />
        </mxCell>
        <mxCell id="AW-5If2h7jhuDSfscNTW-71" value="- &lt;u&gt;action&lt;/u&gt;(choice : int) : boolean" style="text;html=1;strokeColor=none;fillColor=none;align=left;verticalAlign=middle;spacingLeft=4;spacingRight=4;overflow=hidden;rotatable=0;points=[[0,0.5],[1,0.5]];portConstraint=eastwest;whiteSpace=wrap;" vertex="1" parent="AW-5If2h7jhuDSfscNTW-63">
          <mxGeometry y="183" width="200" height="20" as="geometry" />
        </mxCell>
        <mxCell id="AW-5If2h7jhuDSfscNTW-72" value="- &lt;u&gt;addOrder&lt;/u&gt;(in : Scanner) : void" style="text;html=1;strokeColor=none;fillColor=none;align=left;verticalAlign=middle;spacingLeft=4;spacingRight=4;overflow=hidden;rotatable=0;points=[[0,0.5],[1,0.5]];portConstraint=eastwest;whiteSpace=wrap;" vertex="1" parent="AW-5If2h7jhuDSfscNTW-63">
          <mxGeometry y="203" width="200" height="20" as="geometry" />
        </mxCell>
        <mxCell id="AW-5If2h7jhuDSfscNTW-73" value="- &lt;u&gt;initialize&lt;/u&gt;() : void" style="text;html=1;strokeColor=none;fillColor=none;align=left;verticalAlign=middle;spacingLeft=4;spacingRight=4;overflow=hidden;rotatable=0;points=[[0,0.5],[1,0.5]];portConstraint=eastwest;whiteSpace=wrap;" vertex="1" parent="AW-5If2h7jhuDSfscNTW-63">
          <mxGeometry y="223" width="200" height="20" as="geometry" />
        </mxCell>
        <mxCell id="AW-5If2h7jhuDSfscNTW-76" value="..." style="text;html=1;strokeColor=none;fillColor=none;align=left;verticalAlign=middle;spacingLeft=4;spacingRight=4;overflow=hidden;rotatable=0;points=[[0,0.5],[1,0.5]];portConstraint=eastwest;whiteSpace=wrap;" vertex="1" parent="AW-5If2h7jhuDSfscNTW-63">
          <mxGeometry y="243" width="200" height="20" as="geometry" />
        </mxCell>
        <mxCell id="AW-5If2h7jhuDSfscNTW-78" value="&amp;lt;&amp;lt;ui&amp;gt;&amp;gt;&lt;br&gt;&lt;b&gt;Menu&lt;/b&gt;&lt;br&gt;{entity}" style="swimlane;fontStyle=0;align=center;verticalAlign=top;childLayout=stackLayout;horizontal=1;startSize=55;horizontalStack=0;resizeParent=1;resizeParentMax=0;resizeLast=0;collapsible=0;marginBottom=0;html=1;whiteSpace=wrap;" vertex="1" parent="1">
          <mxGeometry x="545" y="-260" width="340" height="403" as="geometry" />
        </mxCell>
        <mxCell id="AW-5If2h7jhuDSfscNTW-79" value="attributes" style="text;html=1;strokeColor=none;fillColor=none;align=center;verticalAlign=middle;spacingLeft=4;spacingRight=4;overflow=hidden;rotatable=0;points=[[0,0.5],[1,0.5]];portConstraint=eastwest;whiteSpace=wrap;" vertex="1" parent="AW-5If2h7jhuDSfscNTW-78">
          <mxGeometry y="55" width="340" height="20" as="geometry" />
        </mxCell>
        <mxCell id="AW-5If2h7jhuDSfscNTW-80" value="- mOptions : String[]" style="text;html=1;strokeColor=none;fillColor=none;align=left;verticalAlign=middle;spacingLeft=4;spacingRight=4;overflow=hidden;rotatable=0;points=[[0,0.5],[1,0.5]];portConstraint=eastwest;whiteSpace=wrap;" vertex="1" parent="AW-5If2h7jhuDSfscNTW-78">
          <mxGeometry y="75" width="340" height="20" as="geometry" />
        </mxCell>
        <mxCell id="AW-5If2h7jhuDSfscNTW-81" value="- mMax : int" style="text;html=1;strokeColor=none;fillColor=none;align=left;verticalAlign=middle;spacingLeft=4;spacingRight=4;overflow=hidden;rotatable=0;points=[[0,0.5],[1,0.5]];portConstraint=eastwest;whiteSpace=wrap;" vertex="1" parent="AW-5If2h7jhuDSfscNTW-78">
          <mxGeometry y="95" width="340" height="20" as="geometry" />
        </mxCell>
        <mxCell id="AW-5If2h7jhuDSfscNTW-93" value="- mSize : int" style="text;html=1;strokeColor=none;fillColor=none;align=left;verticalAlign=middle;spacingLeft=4;spacingRight=4;overflow=hidden;rotatable=0;points=[[0,0.5],[1,0.5]];portConstraint=eastwest;whiteSpace=wrap;" vertex="1" parent="AW-5If2h7jhuDSfscNTW-78">
          <mxGeometry y="115" width="340" height="20" as="geometry" />
        </mxCell>
        <mxCell id="AW-5If2h7jhuDSfscNTW-92" value="- mConsoleWidth : int" style="text;html=1;strokeColor=none;fillColor=none;align=left;verticalAlign=middle;spacingLeft=4;spacingRight=4;overflow=hidden;rotatable=0;points=[[0,0.5],[1,0.5]];portConstraint=eastwest;whiteSpace=wrap;" vertex="1" parent="AW-5If2h7jhuDSfscNTW-78">
          <mxGeometry y="135" width="340" height="20" as="geometry" />
        </mxCell>
        <mxCell id="AW-5If2h7jhuDSfscNTW-91" value="- mTitle : String" style="text;html=1;strokeColor=none;fillColor=none;align=left;verticalAlign=middle;spacingLeft=4;spacingRight=4;overflow=hidden;rotatable=0;points=[[0,0.5],[1,0.5]];portConstraint=eastwest;whiteSpace=wrap;" vertex="1" parent="AW-5If2h7jhuDSfscNTW-78">
          <mxGeometry y="155" width="340" height="20" as="geometry" />
        </mxCell>
        <mxCell id="AW-5If2h7jhuDSfscNTW-82" value="..." style="text;html=1;strokeColor=none;fillColor=none;align=left;verticalAlign=middle;spacingLeft=4;spacingRight=4;overflow=hidden;rotatable=0;points=[[0,0.5],[1,0.5]];portConstraint=eastwest;whiteSpace=wrap;" vertex="1" parent="AW-5If2h7jhuDSfscNTW-78">
          <mxGeometry y="175" width="340" height="20" as="geometry" />
        </mxCell>
        <mxCell id="AW-5If2h7jhuDSfscNTW-83" value="" style="line;strokeWidth=1;fillColor=none;align=left;verticalAlign=middle;spacingTop=-1;spacingLeft=3;spacingRight=3;rotatable=0;labelPosition=right;points=[];portConstraint=eastwest;" vertex="1" parent="AW-5If2h7jhuDSfscNTW-78">
          <mxGeometry y="195" width="340" height="8" as="geometry" />
        </mxCell>
        <mxCell id="AW-5If2h7jhuDSfscNTW-84" value="operations" style="text;html=1;strokeColor=none;fillColor=none;align=center;verticalAlign=middle;spacingLeft=4;spacingRight=4;overflow=hidden;rotatable=0;points=[[0,0.5],[1,0.5]];portConstraint=eastwest;whiteSpace=wrap;" vertex="1" parent="AW-5If2h7jhuDSfscNTW-78">
          <mxGeometry y="203" width="340" height="20" as="geometry" />
        </mxCell>
        <mxCell id="AW-5If2h7jhuDSfscNTW-85" value="+ add(msg : String) : void" style="text;html=1;strokeColor=none;fillColor=none;align=left;verticalAlign=middle;spacingLeft=4;spacingRight=4;overflow=hidden;rotatable=0;points=[[0,0.5],[1,0.5]];portConstraint=eastwest;whiteSpace=wrap;" vertex="1" parent="AW-5If2h7jhuDSfscNTW-78">
          <mxGeometry y="223" width="340" height="20" as="geometry" />
        </mxCell>
        <mxCell id="AW-5If2h7jhuDSfscNTW-86" value="+ remove(index : int) : void" style="text;html=1;strokeColor=none;fillColor=none;align=left;verticalAlign=middle;spacingLeft=4;spacingRight=4;overflow=hidden;rotatable=0;points=[[0,0.5],[1,0.5]];portConstraint=eastwest;whiteSpace=wrap;" vertex="1" parent="AW-5If2h7jhuDSfscNTW-78">
          <mxGeometry y="243" width="340" height="20" as="geometry" />
        </mxCell>
        <mxCell id="AW-5If2h7jhuDSfscNTW-98" value="+ head(msg : String, line : String) : void" style="text;html=1;strokeColor=none;fillColor=none;align=left;verticalAlign=middle;spacingLeft=4;spacingRight=4;overflow=hidden;rotatable=0;points=[[0,0.5],[1,0.5]];portConstraint=eastwest;whiteSpace=wrap;" vertex="1" parent="AW-5If2h7jhuDSfscNTW-78">
          <mxGeometry y="263" width="340" height="20" as="geometry" />
        </mxCell>
        <mxCell id="AW-5If2h7jhuDSfscNTW-96" value="+ pause() : void" style="text;html=1;strokeColor=none;fillColor=none;align=left;verticalAlign=middle;spacingLeft=4;spacingRight=4;overflow=hidden;rotatable=0;points=[[0,0.5],[1,0.5]];portConstraint=eastwest;whiteSpace=wrap;" vertex="1" parent="AW-5If2h7jhuDSfscNTW-78">
          <mxGeometry y="283" width="340" height="20" as="geometry" />
        </mxCell>
        <mxCell id="AW-5If2h7jhuDSfscNTW-87" value="- title() : void" style="text;html=1;strokeColor=none;fillColor=none;align=left;verticalAlign=middle;spacingLeft=4;spacingRight=4;overflow=hidden;rotatable=0;points=[[0,0.5],[1,0.5]];portConstraint=eastwest;whiteSpace=wrap;" vertex="1" parent="AW-5If2h7jhuDSfscNTW-78">
          <mxGeometry y="303" width="340" height="20" as="geometry" />
        </mxCell>
        <mxCell id="AW-5If2h7jhuDSfscNTW-88" value="- select(in : Scanner) : int" style="text;html=1;strokeColor=none;fillColor=none;align=left;verticalAlign=middle;spacingLeft=4;spacingRight=4;overflow=hidden;rotatable=0;points=[[0,0.5],[1,0.5]];portConstraint=eastwest;whiteSpace=wrap;" vertex="1" parent="AW-5If2h7jhuDSfscNTW-78">
          <mxGeometry y="323" width="340" height="20" as="geometry" />
        </mxCell>
        <mxCell id="AW-5If2h7jhuDSfscNTW-97" value="- head(msg : String, lineLeft : String, lineRight : String) : void" style="text;html=1;strokeColor=none;fillColor=none;align=left;verticalAlign=middle;spacingLeft=4;spacingRight=4;overflow=hidden;rotatable=0;points=[[0,0.5],[1,0.5]];portConstraint=eastwest;whiteSpace=wrap;" vertex="1" parent="AW-5If2h7jhuDSfscNTW-78">
          <mxGeometry y="343" width="340" height="20" as="geometry" />
        </mxCell>
        <mxCell id="AW-5If2h7jhuDSfscNTW-95" value="- pause(in : Scanner) : void" style="text;html=1;strokeColor=none;fillColor=none;align=left;verticalAlign=middle;spacingLeft=4;spacingRight=4;overflow=hidden;rotatable=0;points=[[0,0.5],[1,0.5]];portConstraint=eastwest;whiteSpace=wrap;" vertex="1" parent="AW-5If2h7jhuDSfscNTW-78">
          <mxGeometry y="363" width="340" height="20" as="geometry" />
        </mxCell>
        <mxCell id="AW-5If2h7jhuDSfscNTW-89" value="..." style="text;html=1;strokeColor=none;fillColor=none;align=left;verticalAlign=middle;spacingLeft=4;spacingRight=4;overflow=hidden;rotatable=0;points=[[0,0.5],[1,0.5]];portConstraint=eastwest;whiteSpace=wrap;" vertex="1" parent="AW-5If2h7jhuDSfscNTW-78">
          <mxGeometry y="383" width="340" height="20" as="geometry" />
        </mxCell>
        <mxCell id="AW-5If2h7jhuDSfscNTW-130" style="edgeStyle=orthogonalEdgeStyle;rounded=0;orthogonalLoop=1;jettySize=auto;html=1;startArrow=circlePlus;startFill=0;endArrow=none;endFill=0;" edge="1" parent="1" source="AW-5If2h7jhuDSfscNTW-102" target="AW-5If2h7jhuDSfscNTW-116">
          <mxGeometry relative="1" as="geometry" />
        </mxCell>
        <mxCell id="AW-5If2h7jhuDSfscNTW-153" style="edgeStyle=orthogonalEdgeStyle;rounded=0;orthogonalLoop=1;jettySize=auto;html=1;exitX=0.5;exitY=0;exitDx=0;exitDy=0;endArrow=none;endFill=0;" edge="1" parent="1" source="AW-5If2h7jhuDSfscNTW-102" target="AW-5If2h7jhuDSfscNTW-22">
          <mxGeometry relative="1" as="geometry" />
        </mxCell>
        <mxCell id="AW-5If2h7jhuDSfscNTW-102" value="&amp;lt;&amp;lt;model&amp;gt;&amp;gt;&lt;br&gt;&lt;b&gt;LinkedQueue&lt;/b&gt;&lt;br&gt;{entity}" style="swimlane;fontStyle=0;align=center;verticalAlign=top;childLayout=stackLayout;horizontal=1;startSize=55;horizontalStack=0;resizeParent=1;resizeParentMax=0;resizeLast=0;collapsible=0;marginBottom=0;html=1;whiteSpace=wrap;" vertex="1" parent="1">
          <mxGeometry x="615" y="710" width="200" height="343" as="geometry" />
        </mxCell>
        <mxCell id="AW-5If2h7jhuDSfscNTW-103" value="attributes" style="text;html=1;strokeColor=none;fillColor=none;align=center;verticalAlign=middle;spacingLeft=4;spacingRight=4;overflow=hidden;rotatable=0;points=[[0,0.5],[1,0.5]];portConstraint=eastwest;whiteSpace=wrap;" vertex="1" parent="AW-5If2h7jhuDSfscNTW-102">
          <mxGeometry y="55" width="200" height="20" as="geometry" />
        </mxCell>
        <mxCell id="AW-5If2h7jhuDSfscNTW-104" value="- firstNode : Node" style="text;html=1;strokeColor=none;fillColor=none;align=left;verticalAlign=middle;spacingLeft=4;spacingRight=4;overflow=hidden;rotatable=0;points=[[0,0.5],[1,0.5]];portConstraint=eastwest;whiteSpace=wrap;" vertex="1" parent="AW-5If2h7jhuDSfscNTW-102">
          <mxGeometry y="75" width="200" height="20" as="geometry" />
        </mxCell>
        <mxCell id="AW-5If2h7jhuDSfscNTW-105" value="- lastNode : Node" style="text;html=1;strokeColor=none;fillColor=none;align=left;verticalAlign=middle;spacingLeft=4;spacingRight=4;overflow=hidden;rotatable=0;points=[[0,0.5],[1,0.5]];portConstraint=eastwest;whiteSpace=wrap;" vertex="1" parent="AW-5If2h7jhuDSfscNTW-102">
          <mxGeometry y="95" width="200" height="20" as="geometry" />
        </mxCell>
        <mxCell id="AW-5If2h7jhuDSfscNTW-106" value="- size : int" style="text;html=1;strokeColor=none;fillColor=none;align=left;verticalAlign=middle;spacingLeft=4;spacingRight=4;overflow=hidden;rotatable=0;points=[[0,0.5],[1,0.5]];portConstraint=eastwest;whiteSpace=wrap;" vertex="1" parent="AW-5If2h7jhuDSfscNTW-102">
          <mxGeometry y="115" width="200" height="20" as="geometry" />
        </mxCell>
        <mxCell id="AW-5If2h7jhuDSfscNTW-107" value="..." style="text;html=1;strokeColor=none;fillColor=none;align=left;verticalAlign=middle;spacingLeft=4;spacingRight=4;overflow=hidden;rotatable=0;points=[[0,0.5],[1,0.5]];portConstraint=eastwest;whiteSpace=wrap;" vertex="1" parent="AW-5If2h7jhuDSfscNTW-102">
          <mxGeometry y="135" width="200" height="20" as="geometry" />
        </mxCell>
        <mxCell id="AW-5If2h7jhuDSfscNTW-108" value="" style="line;strokeWidth=1;fillColor=none;align=left;verticalAlign=middle;spacingTop=-1;spacingLeft=3;spacingRight=3;rotatable=0;labelPosition=right;points=[];portConstraint=eastwest;" vertex="1" parent="AW-5If2h7jhuDSfscNTW-102">
          <mxGeometry y="155" width="200" height="8" as="geometry" />
        </mxCell>
        <mxCell id="AW-5If2h7jhuDSfscNTW-109" value="operations" style="text;html=1;strokeColor=none;fillColor=none;align=center;verticalAlign=middle;spacingLeft=4;spacingRight=4;overflow=hidden;rotatable=0;points=[[0,0.5],[1,0.5]];portConstraint=eastwest;whiteSpace=wrap;" vertex="1" parent="AW-5If2h7jhuDSfscNTW-102">
          <mxGeometry y="163" width="200" height="20" as="geometry" />
        </mxCell>
        <mxCell id="AW-5If2h7jhuDSfscNTW-110" value="+ enqueue(newEntry : T) : void" style="text;html=1;strokeColor=none;fillColor=none;align=left;verticalAlign=middle;spacingLeft=4;spacingRight=4;overflow=hidden;rotatable=0;points=[[0,0.5],[1,0.5]];portConstraint=eastwest;whiteSpace=wrap;" vertex="1" parent="AW-5If2h7jhuDSfscNTW-102">
          <mxGeometry y="183" width="200" height="20" as="geometry" />
        </mxCell>
        <mxCell id="AW-5If2h7jhuDSfscNTW-111" value="+ dequeue() : T" style="text;html=1;strokeColor=none;fillColor=none;align=left;verticalAlign=middle;spacingLeft=4;spacingRight=4;overflow=hidden;rotatable=0;points=[[0,0.5],[1,0.5]];portConstraint=eastwest;whiteSpace=wrap;" vertex="1" parent="AW-5If2h7jhuDSfscNTW-102">
          <mxGeometry y="203" width="200" height="20" as="geometry" />
        </mxCell>
        <mxCell id="AW-5If2h7jhuDSfscNTW-112" value="+ getFront() : T" style="text;html=1;strokeColor=none;fillColor=none;align=left;verticalAlign=middle;spacingLeft=4;spacingRight=4;overflow=hidden;rotatable=0;points=[[0,0.5],[1,0.5]];portConstraint=eastwest;whiteSpace=wrap;" vertex="1" parent="AW-5If2h7jhuDSfscNTW-102">
          <mxGeometry y="223" width="200" height="20" as="geometry" />
        </mxCell>
        <mxCell id="AW-5If2h7jhuDSfscNTW-113" value="+ isEmpty() : boolean" style="text;html=1;strokeColor=none;fillColor=none;align=left;verticalAlign=middle;spacingLeft=4;spacingRight=4;overflow=hidden;rotatable=0;points=[[0,0.5],[1,0.5]];portConstraint=eastwest;whiteSpace=wrap;" vertex="1" parent="AW-5If2h7jhuDSfscNTW-102">
          <mxGeometry y="243" width="200" height="20" as="geometry" />
        </mxCell>
        <mxCell id="AW-5If2h7jhuDSfscNTW-114" value="+ clear() : void" style="text;html=1;strokeColor=none;fillColor=none;align=left;verticalAlign=middle;spacingLeft=4;spacingRight=4;overflow=hidden;rotatable=0;points=[[0,0.5],[1,0.5]];portConstraint=eastwest;whiteSpace=wrap;" vertex="1" parent="AW-5If2h7jhuDSfscNTW-102">
          <mxGeometry y="263" width="200" height="20" as="geometry" />
        </mxCell>
        <mxCell id="AW-5If2h7jhuDSfscNTW-136" value="+ toArray() : T[]" style="text;html=1;strokeColor=none;fillColor=none;align=left;verticalAlign=middle;spacingLeft=4;spacingRight=4;overflow=hidden;rotatable=0;points=[[0,0.5],[1,0.5]];portConstraint=eastwest;whiteSpace=wrap;" vertex="1" parent="AW-5If2h7jhuDSfscNTW-102">
          <mxGeometry y="283" width="200" height="20" as="geometry" />
        </mxCell>
        <mxCell id="AW-5If2h7jhuDSfscNTW-135" value="+ getSize() : int" style="text;html=1;strokeColor=none;fillColor=none;align=left;verticalAlign=middle;spacingLeft=4;spacingRight=4;overflow=hidden;rotatable=0;points=[[0,0.5],[1,0.5]];portConstraint=eastwest;whiteSpace=wrap;" vertex="1" parent="AW-5If2h7jhuDSfscNTW-102">
          <mxGeometry y="303" width="200" height="20" as="geometry" />
        </mxCell>
        <mxCell id="AW-5If2h7jhuDSfscNTW-115" value="..." style="text;html=1;strokeColor=none;fillColor=none;align=left;verticalAlign=middle;spacingLeft=4;spacingRight=4;overflow=hidden;rotatable=0;points=[[0,0.5],[1,0.5]];portConstraint=eastwest;whiteSpace=wrap;" vertex="1" parent="AW-5If2h7jhuDSfscNTW-102">
          <mxGeometry y="323" width="200" height="20" as="geometry" />
        </mxCell>
        <mxCell id="AW-5If2h7jhuDSfscNTW-116" value="&amp;lt;&amp;lt;model&amp;gt;&amp;gt;&lt;br&gt;&lt;b&gt;Node&lt;/b&gt;&lt;br&gt;{entity}" style="swimlane;fontStyle=0;align=center;verticalAlign=top;childLayout=stackLayout;horizontal=1;startSize=55;horizontalStack=0;resizeParent=1;resizeParentMax=0;resizeLast=0;collapsible=0;marginBottom=0;html=1;whiteSpace=wrap;" vertex="1" parent="1">
          <mxGeometry x="955" y="750" width="230" height="263" as="geometry" />
        </mxCell>
        <mxCell id="AW-5If2h7jhuDSfscNTW-117" value="attributes" style="text;html=1;strokeColor=none;fillColor=none;align=center;verticalAlign=middle;spacingLeft=4;spacingRight=4;overflow=hidden;rotatable=0;points=[[0,0.5],[1,0.5]];portConstraint=eastwest;whiteSpace=wrap;" vertex="1" parent="AW-5If2h7jhuDSfscNTW-116">
          <mxGeometry y="55" width="230" height="20" as="geometry" />
        </mxCell>
        <mxCell id="AW-5If2h7jhuDSfscNTW-118" value="- data : T" style="text;html=1;strokeColor=none;fillColor=none;align=left;verticalAlign=middle;spacingLeft=4;spacingRight=4;overflow=hidden;rotatable=0;points=[[0,0.5],[1,0.5]];portConstraint=eastwest;whiteSpace=wrap;" vertex="1" parent="AW-5If2h7jhuDSfscNTW-116">
          <mxGeometry y="75" width="230" height="20" as="geometry" />
        </mxCell>
        <mxCell id="AW-5If2h7jhuDSfscNTW-119" value="- next : Node" style="text;html=1;strokeColor=none;fillColor=none;align=left;verticalAlign=middle;spacingLeft=4;spacingRight=4;overflow=hidden;rotatable=0;points=[[0,0.5],[1,0.5]];portConstraint=eastwest;whiteSpace=wrap;" vertex="1" parent="AW-5If2h7jhuDSfscNTW-116">
          <mxGeometry y="95" width="230" height="20" as="geometry" />
        </mxCell>
        <mxCell id="AW-5If2h7jhuDSfscNTW-121" value="..." style="text;html=1;strokeColor=none;fillColor=none;align=left;verticalAlign=middle;spacingLeft=4;spacingRight=4;overflow=hidden;rotatable=0;points=[[0,0.5],[1,0.5]];portConstraint=eastwest;whiteSpace=wrap;" vertex="1" parent="AW-5If2h7jhuDSfscNTW-116">
          <mxGeometry y="115" width="230" height="20" as="geometry" />
        </mxCell>
        <mxCell id="AW-5If2h7jhuDSfscNTW-122" value="" style="line;strokeWidth=1;fillColor=none;align=left;verticalAlign=middle;spacingTop=-1;spacingLeft=3;spacingRight=3;rotatable=0;labelPosition=right;points=[];portConstraint=eastwest;" vertex="1" parent="AW-5If2h7jhuDSfscNTW-116">
          <mxGeometry y="135" width="230" height="8" as="geometry" />
        </mxCell>
        <mxCell id="AW-5If2h7jhuDSfscNTW-123" value="operations" style="text;html=1;strokeColor=none;fillColor=none;align=center;verticalAlign=middle;spacingLeft=4;spacingRight=4;overflow=hidden;rotatable=0;points=[[0,0.5],[1,0.5]];portConstraint=eastwest;whiteSpace=wrap;" vertex="1" parent="AW-5If2h7jhuDSfscNTW-116">
          <mxGeometry y="143" width="230" height="20" as="geometry" />
        </mxCell>
        <mxCell id="AW-5If2h7jhuDSfscNTW-124" value="- getData() : T" style="text;html=1;strokeColor=none;fillColor=none;align=left;verticalAlign=middle;spacingLeft=4;spacingRight=4;overflow=hidden;rotatable=0;points=[[0,0.5],[1,0.5]];portConstraint=eastwest;whiteSpace=wrap;" vertex="1" parent="AW-5If2h7jhuDSfscNTW-116">
          <mxGeometry y="163" width="230" height="20" as="geometry" />
        </mxCell>
        <mxCell id="AW-5If2h7jhuDSfscNTW-125" value="- getNextNode() : Node" style="text;html=1;strokeColor=none;fillColor=none;align=left;verticalAlign=middle;spacingLeft=4;spacingRight=4;overflow=hidden;rotatable=0;points=[[0,0.5],[1,0.5]];portConstraint=eastwest;whiteSpace=wrap;" vertex="1" parent="AW-5If2h7jhuDSfscNTW-116">
          <mxGeometry y="183" width="230" height="20" as="geometry" />
        </mxCell>
        <mxCell id="AW-5If2h7jhuDSfscNTW-126" value="- setData(newData : T) : Node" style="text;html=1;strokeColor=none;fillColor=none;align=left;verticalAlign=middle;spacingLeft=4;spacingRight=4;overflow=hidden;rotatable=0;points=[[0,0.5],[1,0.5]];portConstraint=eastwest;whiteSpace=wrap;" vertex="1" parent="AW-5If2h7jhuDSfscNTW-116">
          <mxGeometry y="203" width="230" height="20" as="geometry" />
        </mxCell>
        <mxCell id="AW-5If2h7jhuDSfscNTW-127" value="- setNextNode(nextNode : Node) : void" style="text;html=1;strokeColor=none;fillColor=none;align=left;verticalAlign=middle;spacingLeft=4;spacingRight=4;overflow=hidden;rotatable=0;points=[[0,0.5],[1,0.5]];portConstraint=eastwest;whiteSpace=wrap;" vertex="1" parent="AW-5If2h7jhuDSfscNTW-116">
          <mxGeometry y="223" width="230" height="20" as="geometry" />
        </mxCell>
        <mxCell id="AW-5If2h7jhuDSfscNTW-129" value="..." style="text;html=1;strokeColor=none;fillColor=none;align=left;verticalAlign=middle;spacingLeft=4;spacingRight=4;overflow=hidden;rotatable=0;points=[[0,0.5],[1,0.5]];portConstraint=eastwest;whiteSpace=wrap;" vertex="1" parent="AW-5If2h7jhuDSfscNTW-116">
          <mxGeometry y="243" width="230" height="20" as="geometry" />
        </mxCell>
        <mxCell id="AW-5If2h7jhuDSfscNTW-137" value="&amp;lt;&amp;lt;model&amp;gt;&amp;gt;&lt;br&gt;&lt;b&gt;EmptyQueueException&lt;/b&gt;&lt;br&gt;{entity}" style="swimlane;fontStyle=0;align=center;verticalAlign=top;childLayout=stackLayout;horizontal=1;startSize=55;horizontalStack=0;resizeParent=1;resizeParentMax=0;resizeLast=0;collapsible=0;marginBottom=0;html=1;whiteSpace=wrap;" vertex="1" parent="1">
          <mxGeometry x="320" y="890" width="200" height="163" as="geometry" />
        </mxCell>
        <mxCell id="AW-5If2h7jhuDSfscNTW-138" value="attributes" style="text;html=1;strokeColor=none;fillColor=none;align=center;verticalAlign=middle;spacingLeft=4;spacingRight=4;overflow=hidden;rotatable=0;points=[[0,0.5],[1,0.5]];portConstraint=eastwest;whiteSpace=wrap;" vertex="1" parent="AW-5If2h7jhuDSfscNTW-137">
          <mxGeometry y="55" width="200" height="20" as="geometry" />
        </mxCell>
        <mxCell id="AW-5If2h7jhuDSfscNTW-139" value="- &lt;u&gt;serialVersionUID&lt;/u&gt; : long" style="text;html=1;strokeColor=none;fillColor=none;align=left;verticalAlign=middle;spacingLeft=4;spacingRight=4;overflow=hidden;rotatable=0;points=[[0,0.5],[1,0.5]];portConstraint=eastwest;whiteSpace=wrap;" vertex="1" parent="AW-5If2h7jhuDSfscNTW-137">
          <mxGeometry y="75" width="200" height="20" as="geometry" />
        </mxCell>
        <mxCell id="AW-5If2h7jhuDSfscNTW-142" value="..." style="text;html=1;strokeColor=none;fillColor=none;align=left;verticalAlign=middle;spacingLeft=4;spacingRight=4;overflow=hidden;rotatable=0;points=[[0,0.5],[1,0.5]];portConstraint=eastwest;whiteSpace=wrap;" vertex="1" parent="AW-5If2h7jhuDSfscNTW-137">
          <mxGeometry y="95" width="200" height="20" as="geometry" />
        </mxCell>
        <mxCell id="AW-5If2h7jhuDSfscNTW-143" value="" style="line;strokeWidth=1;fillColor=none;align=left;verticalAlign=middle;spacingTop=-1;spacingLeft=3;spacingRight=3;rotatable=0;labelPosition=right;points=[];portConstraint=eastwest;" vertex="1" parent="AW-5If2h7jhuDSfscNTW-137">
          <mxGeometry y="115" width="200" height="8" as="geometry" />
        </mxCell>
        <mxCell id="AW-5If2h7jhuDSfscNTW-144" value="operations" style="text;html=1;strokeColor=none;fillColor=none;align=center;verticalAlign=middle;spacingLeft=4;spacingRight=4;overflow=hidden;rotatable=0;points=[[0,0.5],[1,0.5]];portConstraint=eastwest;whiteSpace=wrap;" vertex="1" parent="AW-5If2h7jhuDSfscNTW-137">
          <mxGeometry y="123" width="200" height="20" as="geometry" />
        </mxCell>
        <mxCell id="AW-5If2h7jhuDSfscNTW-152" value="..." style="text;html=1;strokeColor=none;fillColor=none;align=left;verticalAlign=middle;spacingLeft=4;spacingRight=4;overflow=hidden;rotatable=0;points=[[0,0.5],[1,0.5]];portConstraint=eastwest;whiteSpace=wrap;" vertex="1" parent="AW-5If2h7jhuDSfscNTW-137">
          <mxGeometry y="143" width="200" height="20" as="geometry" />
        </mxCell>
      </root>
    </mxGraphModel>
  </diagram>
</mxfile>
